<svg xmlns="http://www.w3.org/2000/svg" viewBox="0 0 11.87 11.87"><defs><style>.cls-1{fill:#231815;}</style></defs><title>자산 3</title><g id="레이어_2" data-name="레이어 2"><g id="레이어_1-2" data-name="레이어 1"><path class="cls-1" d="M8.22,0H3.66A3.66,3.66,0,0,0,0,3.66V8.21a3.66,3.66,0,0,0,3.66,3.66H8.22a3.65,3.65,0,0,0,3.65-3.66V3.66A3.65,3.65,0,0,0,8.22,0Zm2.51,7.78a3,3,0,0,1-2.95,3H4.1a3,3,0,0,1-3-2.95V4.1a3,3,0,0,1,3-3H7.78a3,3,0,0,1,3,3Z"/><path class="cls-1" d="M7.05,3.54H9.26V2H6.57a1.93,1.93,0,0,0-1.47.73,2.07,2.07,0,0,0-.4,1.45h0V5.34H3.28V6.93H4.7v4.13H6.33V6.93H9l.19-1.59H6.33V4.21h0A.66.66,0,0,1,7.05,3.54Z"/></g></g></svg>