<svg xmlns="http://www.w3.org/2000/svg" viewBox="0 0 11.87 11.87"><defs><style>.cls-1{fill:#231815;}</style></defs><title>자산 1</title><g id="레이어_2" data-name="레이어 2"><g id="레이어_1-2" data-name="레이어 1"><path class="cls-1" d="M8.22,0H3.66A3.66,3.66,0,0,0,0,3.66V8.21a3.66,3.66,0,0,0,3.66,3.66H8.22a3.65,3.65,0,0,0,3.65-3.66V3.66A3.65,3.65,0,0,0,8.22,0Zm2.51,7.78a3,3,0,0,1-2.95,3H4.1a3,3,0,0,1-3-2.95V4.1a3,3,0,0,1,3-3H7.78a3,3,0,0,1,3,3Z"/><path class="cls-1" d="M6.09,2.83A3.13,3.13,0,1,0,9.22,6,3.13,3.13,0,0,0,6.09,2.83Zm0,5A1.88,1.88,0,1,1,8,6,1.88,1.88,0,0,1,6.09,7.84Z"/><path class="cls-1" d="M9.8,2.78A.8.8,0,1,1,9,2,.79.79,0,0,1,9.8,2.78Z"/></g></g></svg>