<svg xmlns="http://www.w3.org/2000/svg" viewBox="0 0 11.87 11.87"><defs><style>.cls-1{fill:#231815;}</style></defs><title>자산 4</title><g id="레이어_2" data-name="레이어 2"><g id="레이어_1-2" data-name="레이어 1"><path class="cls-1" d="M8.21,0H3.66A3.66,3.66,0,0,0,0,3.66V8.21a3.66,3.66,0,0,0,3.66,3.66H8.21a3.66,3.66,0,0,0,3.66-3.66V3.66A3.66,3.66,0,0,0,8.21,0Zm2.52,7.78a3,3,0,0,1-2.95,3H4.09A3,3,0,0,1,1.14,7.78V4.1a3,3,0,0,1,3-3H7.78a3,3,0,0,1,3,3Z"/><path class="cls-1" d="M5.37,8.54a2.45,2.45,0,0,1-1.21.25,2,2,0,0,1-1.5-.57,1.92,1.92,0,0,1-.57-1.44,2.12,2.12,0,0,1,.62-1.61,2.22,2.22,0,0,1,1.63-.59,2,2,0,0,1,1,.19V5.82a1.37,1.37,0,0,0-.86-.29A1.07,1.07,0,0,0,3.35,6.7a1.13,1.13,0,0,0,.3.83,1.07,1.07,0,0,0,.82.31,1.65,1.65,0,0,0,.9-.29Z"/><path class="cls-1" d="M9.78,8.69H8.54V6.41c0-.59-.21-.88-.64-.88a.66.66,0,0,0-.53.24,1,1,0,0,0-.2.63V8.69H5.93V2.75H7.17V5.27h0a1.41,1.41,0,0,1,1.24-.69c.9,0,1.36.55,1.36,1.64Z"/></g></g></svg>