<svg width="159" height="40" viewBox="0 0 159 40" fill="none" xmlns="http://www.w3.org/2000/svg">
<g clip-path="url(#clip0_354_1065)">
<path d="M54.5875 39.3096C49.4957 39.3096 46.3086 36.1815 46.3086 30.7261V21.4169C46.3086 21.4169 46.3467 21.3418 46.3848 21.3418H50.6893C50.6893 21.3418 50.7655 21.3793 50.7655 21.4169V30.8012C50.7655 33.4913 52.2638 35.218 54.5875 35.218C56.9111 35.218 58.4475 33.4913 58.4475 30.8012V21.4169C58.4475 21.4169 58.4856 21.3418 58.5237 21.3418H62.8282C62.8282 21.3418 62.9044 21.3793 62.9044 21.4169V30.7261C62.9044 36.1815 59.7046 39.3096 54.5875 39.3096Z" fill="#1A2A50"/>
<path d="M78.2055 39.283L69.8124 29.6234C69.8124 29.6234 69.6854 29.5984 69.6854 29.6735V39.2329C69.6854 39.2329 69.6473 39.308 69.6092 39.308H65.3301C65.3301 39.308 65.2539 39.2705 65.2539 39.2329V21.4403C65.2539 21.4403 65.292 21.3652 65.3301 21.3652H68.6061C68.6061 21.3652 68.6442 21.3652 68.6569 21.3903L77.1008 31.3126C77.1008 31.3126 77.2278 31.3376 77.2278 31.2625V21.4403C77.2278 21.4403 77.2659 21.3652 77.304 21.3652H81.5831C81.5831 21.3652 81.6593 21.4028 81.6593 21.4403V39.2329C81.6593 39.2329 81.6212 39.308 81.5831 39.308H78.2563C78.2563 39.308 78.2182 39.308 78.2055 39.283Z" fill="#1A2A50"/>
<path d="M84.2617 39.2329V21.4403C84.2617 21.4403 84.2998 21.3652 84.3379 21.3652H88.617C88.617 21.3652 88.6932 21.4028 88.6932 21.4403V39.2329C88.6932 39.2329 88.6551 39.308 88.617 39.308H84.3379C84.3379 39.308 84.2617 39.2705 84.2617 39.2329Z" fill="#1A2A50"/>
<path d="M100.21 39.3111H95.9308C95.9308 39.3111 95.8546 39.2736 95.8546 39.236V25.4349C95.8546 25.4349 95.8165 25.3598 95.7784 25.3598H90.2422C90.2422 25.3598 90.166 25.3223 90.166 25.2847V21.4559C90.166 21.4559 90.2041 21.3809 90.2422 21.3809H105.873C105.873 21.3809 105.949 21.4184 105.949 21.4559V25.2847C105.949 25.2847 105.911 25.3598 105.873 25.3598H100.362C100.362 25.3598 100.286 25.3973 100.286 25.4349V39.236C100.286 39.236 100.248 39.3111 100.21 39.3111Z" fill="#1A2A50"/>
<path d="M119.701 28.5896V32.2432C119.701 32.2432 119.662 32.3183 119.624 32.3183H111.904C111.904 32.3183 111.828 32.3558 111.828 32.3933V35.3588C111.828 35.3588 111.866 35.4338 111.904 35.4338H120.767C120.767 35.4338 120.843 35.4714 120.843 35.5089V39.2376C120.843 39.2376 120.805 39.3127 120.767 39.3127H107.473C107.473 39.3127 107.396 39.2752 107.396 39.2376V21.4325C107.396 21.4325 107.435 21.3574 107.473 21.3574H120.767C120.767 21.3574 120.843 21.395 120.843 21.4325V25.1612C120.843 25.1612 120.805 25.2363 120.767 25.2363H111.904C111.904 25.2363 111.828 25.2613 111.828 25.3113V28.4394C111.828 28.4394 111.866 28.5145 111.904 28.5145H119.624C119.624 28.5145 119.701 28.552 119.701 28.5896Z" fill="#1A2A50"/>
<path d="M135.928 31.788H140.233C140.233 31.788 140.322 31.8256 140.309 31.8756C139.814 35.6669 137.211 38.4196 133.478 39.1078C127.307 40.2714 121.529 35.0913 122.393 28.9602C123.028 24.4808 126.761 21.3652 131.548 21.3652C136.335 21.3652 139.725 24.3682 140.296 28.7726C140.296 28.8226 140.271 28.8601 140.22 28.8601H135.916C135.916 28.8601 135.852 28.8351 135.852 28.8101C135.344 26.6955 133.808 25.3692 131.522 25.3692C128.665 25.3692 126.697 27.4713 126.697 30.3366C126.697 33.2019 128.678 35.304 131.522 35.304C133.808 35.304 135.357 33.9902 135.852 31.8631C135.852 31.8256 135.89 31.8006 135.916 31.8006L135.928 31.788Z" fill="#1A2A50"/>
<path d="M154.467 39.2376V32.6561C154.467 32.6561 154.429 32.581 154.391 32.581H147.128C147.128 32.581 147.052 32.6186 147.052 32.6561V39.2376C147.052 39.2376 147.014 39.3127 146.975 39.3127H142.607C142.607 39.3127 142.531 39.2752 142.531 39.2376V21.4325C142.531 21.4325 142.569 21.3574 142.607 21.3574H146.975C146.975 21.3574 147.052 21.395 147.052 21.4325V28.4895C147.052 28.4895 147.09 28.5646 147.128 28.5646H154.391C154.391 28.5646 154.467 28.527 154.467 28.4895V21.4325C154.467 21.4325 154.505 21.3574 154.543 21.3574H158.911C158.911 21.3574 158.987 21.395 158.987 21.4325V39.2376C158.987 39.2376 158.949 39.3127 158.911 39.3127H154.543C154.543 39.3127 154.467 39.2752 154.467 39.2376Z" fill="#1A2A50"/>
<path d="M18.2221 9.51166C18.2221 14.4666 14.1462 18.483 9.11789 18.483C4.08962 18.483 0.0136719 14.4666 0.0136719 9.51166C0.0136719 4.55676 4.08962 0.540283 9.11789 0.540283C14.1462 0.540283 18.2221 4.55676 18.2221 9.51166Z" fill="#E81F76"/>
<path d="M14.3379 9.50416C14.3379 12.3445 12.0015 14.6467 9.11913 14.6467C6.23676 14.6467 3.90039 12.3445 3.90039 9.50416C3.90039 6.66385 6.23676 4.36157 9.11913 4.36157C12.0015 4.36157 14.3379 6.66385 14.3379 9.50416Z" fill="#DC2687"/>
<path d="M20.0234 15.17C20.0869 15.0949 20.1758 15.0323 20.2393 14.9573C20.1631 15.0198 20.0869 15.0824 20.0234 15.17Z" fill="#1888CA"/>
<path d="M37.9536 37.8895V28.9431C37.9536 23.9757 33.8649 19.9592 28.8239 19.9592C23.783 19.9592 19.707 23.9882 19.707 28.9431V37.8895H37.9536Z" fill="#001E61"/>
<path d="M33.8397 37.8895V29.1683C33.8397 26.4782 31.6303 24.301 28.9003 24.301C26.1703 24.301 23.9609 26.4782 23.9609 29.1683V37.8895H33.8397Z" fill="#0D3F87"/>
<path d="M0 21.3733V30.3196C0 35.2871 4.08864 39.3035 9.11691 39.3035C14.1452 39.3035 18.2338 35.2745 18.2338 30.3196V21.3733H0Z" fill="#001E61"/>
<path d="M4.12671 21.3733V30.0944C4.12671 32.7846 6.3361 34.9617 9.0661 34.9617C11.7961 34.9617 14.0055 32.7846 14.0055 30.0944V21.3733H4.12671Z" fill="#0D3F87"/>
<path d="M19.9219 0.540283V18.483H38.1304L19.9219 0.540283Z" fill="#FFB71B"/>
<path d="M24.0372 4.59497V14.4297H34.0175L24.0372 4.59497Z" fill="#EDD672"/>
</g>
<defs>
<clipPath id="clip0_354_1065">
<rect width="159" height="38.7759" fill="white" transform="translate(0 0.540283)"/>
</clipPath>
</defs>
</svg>
