<svg width="141" height="35" viewBox="0 0 141 35" fill="none" xmlns="http://www.w3.org/2000/svg">
<g clip-path="url(#clip0_348_175)">
<path d="M45.008 27.3322V18.8617C45.008 18.8617 44.9742 18.7939 44.9404 18.7939H41.1232C41.1232 18.7939 41.0557 18.8278 41.0557 18.8617V27.2644C41.0557 32.1886 43.8932 35.0121 48.3973 35.0121C52.9014 35.0121 55.7727 32.1886 55.7727 27.2644V18.8617C55.7727 18.8617 55.7389 18.7939 55.7052 18.7939H51.888C51.888 18.7939 51.8204 18.8278 51.8204 18.8617V27.3322C51.8204 29.7604 50.4692 31.319 48.3973 31.319C46.3254 31.319 45.008 29.7604 45.008 27.3322Z" fill="white"/>
<path d="M61.7291 34.9983C61.7291 34.9983 61.7966 34.9644 61.7966 34.9305V26.3019C61.7966 26.2342 61.8754 26.2116 61.9092 26.2568L69.3522 34.9757C69.3522 34.9757 69.386 34.9983 69.3972 34.9983H72.3474C72.3474 34.9983 72.415 34.9644 72.415 34.9305V18.8705C72.415 18.8705 72.3812 18.8027 72.3474 18.8027H68.5527C68.5527 18.8027 68.4852 18.8366 68.4852 18.8705V27.7363C68.4852 27.804 68.4064 27.8266 68.3726 27.7814L60.8846 18.8253C60.8846 18.8253 60.8508 18.8027 60.8395 18.8027H57.9344C57.9344 18.8027 57.8668 18.8366 57.8668 18.8705V34.9305C57.8668 34.9305 57.9006 34.9983 57.9344 34.9983H61.7291Z" fill="white"/>
<path d="M74.7895 18.8027H78.5842C78.5842 18.8027 78.6517 18.8366 78.6517 18.8705V34.9305C78.6517 34.9305 78.6179 34.9983 78.5842 34.9983H74.7895C74.7895 34.9983 74.7219 34.9644 74.7219 34.9305V18.8818C74.7219 18.8818 74.7557 18.814 74.7895 18.814V18.8027Z" fill="white"/>
<path d="M84.9355 22.4072C84.9355 22.4072 85.0031 22.441 85.0031 22.4749V34.9322C85.0031 34.9322 85.0368 34.9999 85.0706 34.9999H88.8653C88.8653 34.9999 88.9329 34.966 88.9329 34.9322V22.4749C88.9329 22.4749 88.9666 22.4072 89.0004 22.4072H93.8873C93.8873 22.4072 93.9549 22.3733 93.9549 22.3394V18.8834C93.9549 18.8834 93.9211 18.8157 93.8873 18.8157H80.0261C80.0261 18.8157 79.9585 18.8496 79.9585 18.8834V22.3394C79.9585 22.3394 79.9923 22.4072 80.0261 22.4072H84.9355Z" fill="white"/>
<path d="M99.2361 22.2951H107.096C107.096 22.2951 107.163 22.2612 107.163 22.2273V18.8617C107.163 18.8617 107.13 18.7939 107.096 18.7939H95.3063C95.3063 18.7939 95.2388 18.8278 95.2388 18.8617V34.933C95.2388 34.933 95.2725 35.0008 95.3063 35.0008H107.096C107.096 35.0008 107.163 34.9669 107.163 34.933V31.5674C107.163 31.5674 107.13 31.4997 107.096 31.4997H99.2361C99.2361 31.4997 99.1686 31.4658 99.1686 31.4319V28.7552C99.1686 28.7552 99.2023 28.6875 99.2361 28.6875H106.082C106.082 28.6875 106.15 28.6536 106.15 28.6197V25.3219C106.15 25.3219 106.116 25.2541 106.082 25.2541H99.2361C99.2361 25.2541 99.1686 25.2202 99.1686 25.1863V22.3628C99.1686 22.3628 99.2023 22.2951 99.2361 22.2951Z" fill="white"/>
<path d="M116.633 22.408C118.66 22.408 120.033 23.5939 120.473 25.5139C120.473 25.5477 120.506 25.559 120.529 25.559H124.346C124.346 25.559 124.425 25.5251 124.414 25.48C123.907 21.5045 120.867 18.7939 116.655 18.7939C112.444 18.7939 109.1 21.6174 108.537 25.6494C107.771 31.1834 112.895 35.8591 118.367 34.8088C121.677 34.1763 123.986 31.703 124.425 28.2809C124.425 28.2357 124.402 28.2018 124.357 28.2018H120.54C120.54 28.2018 120.484 28.2244 120.484 28.2583C120.033 30.167 118.671 31.3641 116.644 31.3641C114.111 31.3641 112.365 29.4667 112.365 26.8804C112.365 24.2941 114.122 22.3967 116.644 22.3967L116.633 22.408Z" fill="white"/>
<path d="M137.048 18.7939C137.048 18.7939 136.98 18.8278 136.98 18.8617V25.2315C136.98 25.2315 136.946 25.2993 136.913 25.2993H130.472C130.472 25.2993 130.404 25.2654 130.404 25.2315V18.8617C130.404 18.8617 130.37 18.7939 130.337 18.7939H126.463C126.463 18.7939 126.396 18.8278 126.396 18.8617V34.933C126.396 34.933 126.429 35.0008 126.463 35.0008H130.337C130.337 35.0008 130.404 34.9669 130.404 34.933V28.9924C130.404 28.9924 130.438 28.9246 130.472 28.9246H136.913C136.913 28.9246 136.98 28.9585 136.98 28.9924V34.933C136.98 34.933 137.014 35.0008 137.048 35.0008H140.921C140.921 35.0008 140.989 34.9669 140.989 34.933V18.8617C140.989 18.8617 140.955 18.7939 140.921 18.7939H137.048Z" fill="white"/>
<path d="M0.0112305 8.09777C0.0112305 12.5702 3.62575 16.1955 8.08478 16.1955C12.5438 16.1955 16.1583 12.5702 16.1583 8.09777C16.1583 3.62536 12.5438 0 8.08478 0C3.62575 0 0.0112305 3.62536 0.0112305 8.09777Z" fill="white"/>
<path d="M17.4885 25.6367V33.7118H33.6694V25.6367C33.6694 21.153 30.0436 17.5276 25.5733 17.5276C21.103 17.5276 17.4885 21.1642 17.4885 25.6367Z" fill="white"/>
<path d="M3.65956 18.8027H0V26.8779C0 31.3616 3.62578 34.987 8.08481 34.987C12.5438 34.987 16.1696 31.3503 16.1696 26.8779V18.8027H3.65956Z" fill="white"/>
<path d="M17.6688 0V16.1955H33.8159L30.1676 12.5363L21.3171 3.65924L17.6688 0Z" fill="white"/>
</g>
<defs>
<clipPath id="clip0_348_175">
<rect width="141" height="35" fill="white"/>
</clipPath>
</defs>
</svg>
