<svg width="141" height="35" viewBox="0 0 141 35" fill="none" xmlns="http://www.w3.org/2000/svg">
<g clip-path="url(#clip0_839_1634)">
<path d="M48.4077 34.9945C43.8924 34.9945 41.0661 32.171 41.0661 27.2468V18.8441C41.0661 18.8441 41.0999 18.7764 41.1337 18.7764H44.9509C44.9509 18.7764 45.0184 18.8103 45.0184 18.8441V27.3146C45.0184 29.7428 46.3471 31.3014 48.4077 31.3014C50.4684 31.3014 51.8308 29.7428 51.8308 27.3146V18.8441C51.8308 18.8441 51.8646 18.7764 51.8984 18.7764H55.7156C55.7156 18.7764 55.7832 18.8103 55.7832 18.8441V27.2468C55.7832 32.171 52.9456 34.9945 48.4077 34.9945Z" fill="#1A2A50"/>
<path d="M69.3521 34.9708L61.9091 26.2519C61.9091 26.2519 61.7965 26.2293 61.7965 26.297V34.9256C61.7965 34.9256 61.7627 34.9934 61.7289 34.9934H57.9342C57.9342 34.9934 57.8667 34.9595 57.8667 34.9256V18.8656C57.8667 18.8656 57.9005 18.7979 57.9342 18.7979H60.8394C60.8394 18.7979 60.8731 18.7979 60.8844 18.8204L68.3724 27.7766C68.3724 27.7766 68.485 27.7991 68.485 27.7314V18.8656C68.485 18.8656 68.5188 18.7979 68.5526 18.7979H72.3473C72.3473 18.7979 72.4148 18.8317 72.4148 18.8656V34.9256C72.4148 34.9256 72.381 34.9934 72.3473 34.9934H69.3971C69.3971 34.9934 69.3633 34.9934 69.3521 34.9708Z" fill="#1A2A50"/>
<path d="M74.7227 34.9256V18.8656C74.7227 18.8656 74.7564 18.7979 74.7902 18.7979H78.5849C78.5849 18.7979 78.6525 18.8317 78.6525 18.8656V34.9256C78.6525 34.9256 78.6187 34.9934 78.5849 34.9934H74.7902C74.7902 34.9934 74.7227 34.9595 74.7227 34.9256Z" fill="#1A2A50"/>
<path d="M88.8653 34.9958H85.0707C85.0707 34.9958 85.0031 34.9619 85.0031 34.928V22.4708C85.0031 22.4708 84.9693 22.403 84.9355 22.403H80.0261C80.0261 22.403 79.9585 22.3691 79.9585 22.3352V18.8793C79.9585 18.8793 79.9923 18.8115 80.0261 18.8115H93.8874C93.8874 18.8115 93.9549 18.8454 93.9549 18.8793V22.3352C93.9549 22.3352 93.9211 22.403 93.8874 22.403H89.0005C89.0005 22.403 88.9329 22.4369 88.9329 22.4708V34.928C88.9329 34.928 88.8991 34.9958 88.8653 34.9958Z" fill="#1A2A50"/>
<path d="M106.149 25.318V28.6158C106.149 28.6158 106.116 28.6836 106.082 28.6836H99.2357C99.2357 28.6836 99.1682 28.7174 99.1682 28.7513V31.428C99.1682 31.428 99.202 31.4958 99.2357 31.4958H107.095C107.095 31.4958 107.163 31.5296 107.163 31.5635V34.9291C107.163 34.9291 107.129 34.9969 107.095 34.9969H95.3059C95.3059 34.9969 95.2384 34.963 95.2384 34.9291V18.8578C95.2384 18.8578 95.2722 18.79 95.3059 18.79H107.095C107.095 18.79 107.163 18.8239 107.163 18.8578V22.2234C107.163 22.2234 107.129 22.2912 107.095 22.2912H99.2357C99.2357 22.2912 99.1682 22.3138 99.1682 22.3589V25.1824C99.1682 25.1824 99.202 25.2502 99.2357 25.2502H106.082C106.082 25.2502 106.149 25.2841 106.149 25.318Z" fill="#1A2A50"/>
<path d="M120.54 28.2057H124.357C124.357 28.2057 124.436 28.2396 124.425 28.2848C123.986 31.7069 121.678 34.1915 118.367 34.8127C112.895 35.863 107.771 31.1873 108.537 25.6533C109.1 21.61 112.41 18.7979 116.655 18.7979C120.901 18.7979 123.907 21.5084 124.414 25.4839C124.414 25.5291 124.391 25.5629 124.346 25.5629H120.529C120.529 25.5629 120.473 25.5404 120.473 25.5178C120.022 23.6091 118.66 22.4119 116.633 22.4119C114.099 22.4119 112.354 24.3093 112.354 26.8956C112.354 29.4819 114.111 31.3793 116.633 31.3793C118.66 31.3793 120.034 30.1935 120.473 28.2735C120.473 28.2396 120.506 28.217 120.529 28.217L120.54 28.2057Z" fill="#1A2A50"/>
<path d="M136.98 34.9291V28.9885C136.98 28.9885 136.946 28.9207 136.913 28.9207H130.472C130.472 28.9207 130.404 28.9546 130.404 28.9885V34.9291C130.404 34.9291 130.37 34.9969 130.337 34.9969H126.463C126.463 34.9969 126.396 34.963 126.396 34.9291V18.8578C126.396 18.8578 126.429 18.79 126.463 18.79H130.337C130.337 18.79 130.404 18.8239 130.404 18.8578V25.2276C130.404 25.2276 130.438 25.2954 130.472 25.2954H136.913C136.913 25.2954 136.98 25.2615 136.98 25.2276V18.8578C136.98 18.8578 137.014 18.79 137.048 18.79H140.921C140.921 18.79 140.989 18.8239 140.989 18.8578V34.9291C140.989 34.9291 140.955 34.9969 140.921 34.9969H137.048C137.048 34.9969 136.98 34.963 136.98 34.9291Z" fill="#1A2A50"/>
<path d="M16.1591 8.09777C16.1591 12.5702 12.5446 16.1955 8.08557 16.1955C3.62654 16.1955 0.0120239 12.5702 0.0120239 8.09777C0.0120239 3.62536 3.62654 0 8.08557 0C12.5446 0 16.1591 3.62536 16.1591 8.09777Z" fill="#E81F76"/>
<path d="M12.7147 8.09104C12.7147 10.6548 10.6428 12.7329 8.08677 12.7329C5.5307 12.7329 3.45883 10.6548 3.45883 8.09104C3.45883 5.52731 5.5307 3.44922 8.08677 3.44922C10.6428 3.44922 12.7147 5.52731 12.7147 8.09104Z" fill="#DC2687"/>
<path d="M17.7566 13.2047C17.8129 13.1369 17.8917 13.0805 17.948 13.0127C17.8805 13.0692 17.8129 13.1256 17.7566 13.2047Z" fill="#1888CA"/>
<path d="M33.6569 33.7126V25.6374C33.6569 21.1537 30.0311 17.5283 25.5609 17.5283C21.0906 17.5283 17.476 21.165 17.476 25.6374V33.7126H33.6569Z" fill="#001E61"/>
<path d="M30.0088 33.7125V25.8406C30.0088 23.4124 28.0495 21.4473 25.6286 21.4473C23.2077 21.4473 21.2484 23.4124 21.2484 25.8406V33.7125H30.0088Z" fill="#0D3F87"/>
<path d="M0 18.8037V26.8789C0 31.3626 3.62578 34.988 8.08481 34.988C12.5438 34.988 16.1696 31.3513 16.1696 26.8789V18.8037H0Z" fill="#001E61"/>
<path d="M3.65955 18.8037V26.6756C3.65955 29.1038 5.61882 31.069 8.03976 31.069C10.4607 31.069 12.42 29.1038 12.42 26.6756V18.8037H3.65955Z" fill="#0D3F87"/>
<path d="M17.6666 0V16.1955H33.8137L17.6666 0Z" fill="#FFB71B"/>
<path d="M21.316 3.66016V12.5372H30.1665L21.316 3.66016Z" fill="#EDD672"/>
</g>
<defs>
<clipPath id="clip0_839_1634">
<rect width="141" height="35" fill="white"/>
</clipPath>
</defs>
</svg>
